<?xml version="1.0" encoding="UTF-8" ?>
<!DOCTYPE svg PUBLIC "-//W3C//DTD SVG 1.1//EN" "http://www.w3.org/Graphics/SVG/1.1/DTD/svg11.dtd">
<svg width="910pt" height="380pt" viewBox="0 0 910 380" version="1.1" xmlns="http://www.w3.org/2000/svg">
<g id="#D7CCC8ff">
<path fill="#D7CCC8" opacity="1.00" d=" M 705.39 0.00 L 714.63 0.00 C 721.68 0.70 728.88 2.88 734.16 7.80 C 739.95 13.18 742.60 21.17 742.96 28.92 C 743.47 37.71 741.95 47.18 736.19 54.16 C 730.66 61.12 721.61 64.18 712.98 64.63 C 703.84 65.13 693.88 63.47 686.85 57.17 C 680.05 51.22 677.21 41.89 677.21 33.07 C 676.90 24.53 678.80 15.33 684.87 8.97 C 690.10 3.26 697.85 0.67 705.39 0.00 Z" />
<path fill="#D7CCC8" opacity="1.00" d=" M 811.50 34.51 C 823.08 34.50 834.67 34.47 846.25 34.52 C 846.25 52.06 846.24 69.59 846.26 87.12 C 845.90 88.75 847.49 89.75 848.97 89.49 C 866.08 89.58 883.19 89.37 900.30 89.59 C 900.18 101.72 900.28 113.86 900.25 125.99 C 882.24 126.03 864.24 125.96 846.24 126.02 C 846.26 155.68 846.26 185.34 846.24 215.00 C 846.39 221.84 846.91 229.20 850.91 235.01 C 855.01 240.69 862.51 241.95 869.05 242.19 C 879.69 242.36 890.24 239.98 900.20 236.33 C 903.45 247.03 906.83 257.70 909.99 268.44 C 892.89 276.83 874.06 281.92 855.02 282.96 C 840.02 283.29 824.01 282.32 810.93 274.21 C 800.44 267.66 794.66 255.80 792.71 243.92 C 790.72 233.72 791.34 223.31 791.25 213.00 C 791.26 185.32 791.23 157.64 791.26 129.96 C 791.35 128.72 791.10 127.57 790.52 126.50 C 789.10 125.78 787.45 126.06 785.94 125.98 C 778.30 126.02 770.65 125.99 763.00 126.00 C 763.04 115.30 762.91 104.61 763.06 93.92 L 763.38 93.50 C 776.01 92.01 789.33 87.83 797.57 77.54 C 807.25 65.41 809.74 49.47 811.50 34.51 Z" />
<path fill="#D7CCC8" opacity="1.00" d=" M 490.86 104.83 C 506.92 95.73 525.77 93.28 543.96 93.27 C 553.38 93.56 562.88 93.93 572.09 96.14 C 574.01 96.63 575.96 97.06 577.97 97.02 C 600.73 96.99 623.49 97.00 646.25 97.01 C 646.27 107.32 646.21 117.63 646.28 127.94 C 635.22 128.97 624.13 129.74 613.06 130.49 C 620.98 140.56 626.30 152.97 626.27 165.93 C 626.73 181.24 621.78 196.98 611.20 208.26 C 599.82 220.60 583.49 227.24 567.14 229.69 C 551.59 231.99 535.63 231.32 520.29 227.94 C 516.50 234.23 512.41 240.33 508.73 246.68 C 534.53 248.58 560.43 249.38 586.15 252.26 C 601.02 254.23 616.81 256.64 629.07 266.00 C 638.31 273.02 642.63 284.67 643.40 295.94 C 644.79 309.84 642.09 324.55 633.82 336.04 C 624.36 349.34 609.34 357.50 593.97 362.04 C 571.32 368.75 547.36 369.22 523.95 367.87 C 509.16 366.90 494.20 365.01 480.32 359.57 C 471.22 355.95 462.48 350.22 457.54 341.54 C 452.29 331.99 451.81 320.23 454.99 309.93 C 458.06 300.19 465.74 293.08 472.74 286.06 C 467.53 283.72 462.65 280.15 459.98 274.97 C 456.14 267.51 456.00 258.21 459.77 250.68 C 463.37 243.08 469.93 237.59 475.69 231.68 C 480.23 226.99 485.17 222.73 489.86 218.19 C 474.17 210.70 463.32 195.00 460.22 178.07 C 457.81 164.46 458.60 150.11 463.30 137.06 C 468.13 123.40 478.21 111.81 490.86 104.83 M 537.09 130.11 C 528.95 131.27 520.95 135.27 516.20 142.16 C 511.12 149.64 510.02 159.14 510.94 167.96 C 511.78 175.73 515.73 183.40 522.57 187.49 C 530.11 192.12 539.36 193.11 548.02 192.55 C 557.50 191.87 567.20 187.80 572.79 179.84 C 578.77 171.56 579.28 160.53 576.84 150.91 C 575.05 143.58 570.23 136.91 563.45 133.46 C 555.41 129.28 545.92 128.81 537.09 130.11 M 505.29 296.36 C 500.39 302.14 495.20 309.13 496.29 317.16 C 496.88 322.66 501.42 326.76 506.25 328.85 C 515.28 332.73 525.26 333.32 534.95 333.73 C 547.28 333.82 559.82 333.86 571.85 330.78 C 578.13 329.03 584.89 325.99 587.88 319.80 C 590.17 315.17 590.31 308.59 585.93 305.13 C 580.82 301.33 574.18 300.93 568.09 300.24 C 547.35 298.81 526.60 297.38 505.86 296.01 L 505.29 296.36 Z" />
<path fill="#D7CCC8" opacity="1.00" d=" M 667.09 93.45 C 692.14 93.58 717.20 93.43 742.26 93.53 C 742.25 144.04 742.24 194.55 742.26 245.06 C 742.28 247.24 742.48 250.31 745.23 250.64 C 752.27 251.96 759.42 252.62 766.50 253.72 C 766.49 263.32 766.52 272.91 766.48 282.51 C 731.99 282.49 697.50 282.51 663.01 282.50 C 662.96 272.94 663.07 263.38 662.95 253.82 C 669.93 252.55 677.03 252.06 684.00 250.70 C 686.21 250.31 687.37 248.05 687.24 245.95 C 687.27 209.64 687.22 173.32 687.26 137.01 C 687.40 134.39 686.35 131.34 683.68 130.39 C 676.82 127.81 669.84 125.56 662.97 123.00 C 664.38 113.15 665.52 103.27 667.09 93.45 Z" />
</g>
<g id="#f05033ff">
<path fill="#f05033" opacity="1.00" d=" M 172.67 6.75 C 181.81 -2.15 197.87 -1.93 206.79 7.18 C 260.81 61.17 314.80 115.19 368.81 169.18 C 371.47 171.86 374.35 174.41 376.29 177.70 C 380.90 185.14 381.06 195.11 376.74 202.72 C 374.64 206.49 371.28 209.27 368.30 212.31 C 314.82 265.83 261.29 319.30 207.82 372.83 C 204.08 376.74 198.99 379.18 193.66 380.00 L 186.52 380.00 C 181.45 379.06 176.57 376.81 172.94 373.08 C 117.61 317.74 62.27 262.40 6.93 207.07 C 3.06 203.27 0.72 198.12 0.00 192.77 L 0.00 186.54 C 0.85 181.15 3.31 176.03 7.20 172.17 C 45.11 134.31 82.94 96.36 120.89 58.54 C 135.30 72.96 149.81 87.29 164.10 101.84 C 161.56 107.81 161.02 114.63 162.87 120.88 C 165.17 129.40 171.64 136.49 179.73 139.91 C 179.77 174.74 179.77 209.56 179.73 244.38 C 166.98 249.60 158.97 264.45 162.59 277.92 C 165.77 292.80 182.09 303.21 196.92 299.52 C 211.06 296.71 221.50 282.17 219.52 267.87 C 218.51 258.17 212.09 249.58 203.51 245.15 C 203.58 210.60 203.32 176.05 203.64 141.51 C 216.77 154.65 229.94 167.76 243.04 180.95 C 239.64 189.34 240.16 199.26 244.96 207.01 C 251.50 218.35 266.30 224.04 278.72 219.71 C 290.82 215.96 299.50 203.57 298.75 190.90 C 298.37 179.75 290.89 169.30 280.50 165.27 C 274.08 162.60 266.77 162.67 260.22 164.81 C 246.15 150.81 232.14 136.76 218.12 122.73 C 222.16 111.31 218.25 97.69 208.59 90.32 C 201.01 84.17 190.40 82.74 181.20 85.66 C 166.73 70.99 152.05 56.52 137.54 41.88 C 149.22 30.14 160.92 18.42 172.67 6.75 Z" />
</g>
</svg>
