<!-- Generator: Adobe Illustrator 19.0.0, SVG Export Plug-In  -->
<svg version="1.1"
	 xmlns="http://www.w3.org/2000/svg" xmlns:xlink="http://www.w3.org/1999/xlink" xmlns:a="http://ns.adobe.com/AdobeSVGViewerExtensions/3.0/"
	 x="0px" y="0px" width="745px" height="109px" viewBox="0 0 745 109" style="overflow:scroll;enable-background:new 0 0 745 109;"
	 xml:space="preserve">
<defs>
</defs>
<path d="M334.9,0.8c2-1.2,4.3-0.7,6.5-0.8c0,30.4,0,60.7,0,91.1c0.1,2.7-0.1,5.8,2,7.8c2.7,2.9,7.1,1.9,10.6,2.1
	c0,1.8-0.2,3.8,0.7,5.5c-2.4,0.8-5,0.5-7.5,0.5c-10.1,0-20.3,0-30.4,0c0-2,0-4,0-6c3.3-0.2,7.1,0.7,9.9-1.6c2.5-2,2.5-5.5,2.7-8.5
	c0-26,0-52,0-77.9C325.3,13,321,13,316.7,13c0-2.3,0-4.6,0-6.9C323.1,5.7,329.3,3.7,334.9,0.8z"/>
<path d="M667.6,0.7c5-2.3,11.5,2,11.3,7.5c0.3,3.6-2.1,7.1-5.5,8.3c-4.8,2.1-11.1-2-11-7.3C662,5.5,664.2,1.9,667.6,0.7z"/>
<g>
	<path d="M0,5c18.9,0.3,37.8-0.8,56.6,0.8C66,6.4,75.4,10.6,81,18.3c4.3,5.9,5.2,13.6,4.4,20.7c-1.9,11.3-10.9,21.2-22.3,23.4
		c-12,2.4-24.4,1.4-36.6,1.6c0.2,10.7-0.4,21.4,0.3,32c0.9,6.1,8.1,4.9,12.6,5c0,2,0,4,0,6c-13.1,0-26.3,0-39.5,0c0-2,0-4,0-6
		c3.7-0.3,8.2,0.9,11.3-1.9c1.8-1.5,1.5-4,1.6-6.1c0-25,0-50.1,0-75.1c0.1-2.3-0.4-5.1-2.8-6.1C6.9,10.5,3.3,11.2,0,11C0,9,0,7,0,5z
		 M26.6,13c0,14.3,0,28.7,0,43c10.6-0.5,21.6,1.3,32-1.8c13.3-5.7,15.9-25.8,6-35.7c-3.8-3.7-9-5.1-14.2-5.4
		C42.4,12.9,34.5,13.1,26.6,13z"/>
</g>
<g>
	<path d="M395.5,5c14.3,0,28.6-0.1,42.8,0.1c10.7,0.7,21.9,0.4,32.1,4.5c18.5,7.5,30.4,27.6,29.6,47.4c0.7,15.8-6.6,31.9-19.4,41.4
		c-9,6.5-20.5,8-31.4,8.6c-17.9,0.1-35.9,0-53.8,0c0-2,0-4,0-6c3.7-0.3,8,1,11.1-1.6c1.9-1.5,1.8-4.2,1.9-6.4c0-24.3,0-48.7,0-73
		c-0.1-3.1-0.5-7.1-3.8-8.4c-3-0.9-6.2-0.4-9.2-0.5C395.5,9,395.5,7,395.5,5z M421.6,13c0,28.7,0,57.3,0,86
		c14.4-0.3,29.3,1.4,43.2-3.3c5.8-2.5,10.3-7.2,13.6-12.4c5.7-9,7.1-19.9,6.6-30.3c0-10.7-4-21.4-11.6-29
		c-6.9-7.4-17.2-10.9-27.1-10.9C438,13,429.8,13,421.6,13z"/>
</g>
<path d="M710.2,27.9c3-4.7,4.2-10.3,4.9-15.8c1.6-0.1,3.2-0.1,4.9-0.1c0,8,0,16,0,24c7.3,0.1,14.6,0,21.9,0.1c0,2.3,0,4.7,0,7
	c-7.3,0-14.6-0.1-21.9,0.1c0.1,15.7-0.1,31.4,0.1,47c0,4.2,1.8,8.8,6.1,10.3c6.7,2.1,13.6-1.2,18.9-5.1c-0.1,2.4-0.1,4.8-0.1,7.2
	c-6,3.8-12.8,6.7-19.9,6.5c-5.1-0.3-10.2-2.3-13.7-6.1c-3.1-3.5-2.8-8.5-3.3-12.8c-0.1-15.7,0-31.4,0-47.1c-4.2,0-8.3,0-12.5,0
	c0-1.9,0-3.9,0-5.8C701.3,36,706.9,33,710.2,27.9z"/>
<g>
	<path d="M109.4,36.2c9-2.7,18.8-2.9,27.8-0.2c5.1,1.6,9.9,4.7,12.5,9.5c2.5,5.1,2,11,2.1,16.5c0.1,11-0.2,22.1,0.2,33.1
		c0.9,2.8,2.3,5.7,5.4,6.6c3.7,0.7,7.5,0.2,11.1-0.4c0,2,0,4,0,5.9c-5.5,1.3-11.2,2.5-16.7,1c-5.7-1.1-10.5-5.7-11.4-11.4
		c-4.6,2.8-8.8,6.2-13.8,8.3c-8.4,3.7-18.4,5.4-27.1,1.7c-6.6-2.8-12.2-9.4-11.9-16.9c-0.3-8.3,6.2-15.3,13.6-18.2
		c12.3-4.9,25.6-6,38.6-7.8c-0.3-5.7,1.2-12.1-2.3-17.2c-3.4-4.7-9.7-6-15.2-5.9c-4.8-0.2-10.1,0.9-13.4,4.6
		c-3.3,3.8-2.5,9.4-5.5,13.3c-2.1,2.4-6.1,2.7-8.6,0.7c-3-2.2-2.4-6.4-1.8-9.6C95.4,42.7,102.4,38.4,109.4,36.2z M114.8,75.4
		c-5.9,1.6-12.7,4.9-14.1,11.5c-1.5,6.7,3.9,13.3,10.5,14c10.8,1.1,20.1-5.6,28.5-11.3c0-6.2,0-12.5,0-18.7
		C131.3,72.2,122.9,73.3,114.8,75.4z"/>
</g>
<g>
	<path d="M263.1,37.1c8.5-3.6,18.3-4,27.1-1c8.1,2.8,14,10,16.6,18c1.3,3.5,1.1,7.3,1.8,11c-17.3,0-34.6,0-51.9,0
		c-0.8,9.7,0.4,20.1,6.5,28c4.4,5.8,11.9,8.8,19.1,8c9.2-0.5,16.2-7.3,22.1-13.8c1.5,0.9,3,1.9,4.6,2.9c-5.3,6.7-11.1,13.3-19,16.8
		c-7.5,3-16,2.5-23.6,0.2c-10.3-3.5-18.7-12.1-21.9-22.6c-2.4-8.3-2.3-17.2-0.1-25.6C247,49.4,254,41,263.1,37.1z M264.3,46
		c-3.6,3.1-5.2,7.7-6.8,12c12.5,0.1,25,0,37.5,0c-0.7-4.8-1.9-9.9-5.8-13.1C282.3,39,271,39.9,264.3,46z"/>
</g>
<path d="M527.2,34.9c2-1.3,4.4-0.8,6.6-0.9c0,4.7-0.1,9.5,0.1,14.2c6.1-6.8,13.9-12.8,23.2-14.1c5.6-0.8,12.7,2.6,12.9,8.8
	c0.8,4.6-4.2,9.4-8.7,7.6c-3.5-2.1-6.5-6.2-11.1-5.5c-5.2,0.7-9.2,4.5-13,7.9c-1.1,1.2-3,2.2-2.7,4.1c0,11.7,0,23.4,0,35
	c0.1,2.5-0.1,5.7,2.3,7.3c3.1,2.6,7.4,1,11,2.2c-0.9,1.7-0.7,3.6-0.7,5.5c-12.5,0-24.9,0-37.4,0c0-2,0-4,0-6c2.9-0.1,6,0.4,8.8-0.6
	c2.5-1.1,3.5-3.8,4-6.3c0-15.7,0-31.4,0-47.1C518.3,47,514,47,509.7,47c0-2.3,0-4.6,0-6.9C515.9,39.7,521.8,37.9,527.2,34.9z"/>
<g>
	<path d="M583.7,45.5c9.6-11.2,26.7-14.3,40.1-8.8c8.3,3.5,13.9,11.7,15.8,20.3c0.4,2.7,0.6,5.4,1,8.1c-17.3,0-34.6,0-51.9,0
		c-0.8,9.4,0.4,19.5,6.1,27.4c4.1,5.8,11.4,9.2,18.6,8.6c9.6,0,17.1-7.1,23.1-13.8c1.5,0.9,3,1.9,4.6,2.9
		c-5.6,7.1-12,14.4-20.8,17.5c-10.6,3.1-22.9,1.1-31.6-5.8c-7.3-5.5-12.1-14-13.3-23.1C573.6,67.2,575.7,54.4,583.7,45.5z M596.3,46
		c-3.5,3.1-5.1,7.7-6.7,12c12.5,0.1,25,0,37.5,0c-0.7-4.8-1.9-9.9-5.8-13.1C614.3,39,603,39.9,596.3,46z"/>
</g>
<path d="M670.2,34.9c2-1.2,4.4-0.9,6.7-0.9c0,19.7,0,39.4,0,59.1c-0.2,2.9,0.8,6.5,3.8,7.5c2.9,0.8,5.9,0.4,8.8,0.5c0,2,0,4,0,6
	c-12.3,0-24.6,0-37,0c0-2,0-4,0-6c3.6-0.2,7.9,0.9,10.9-1.8c1.6-1.6,1.3-4.1,1.5-6.2c0-15.3,0-30.6,0-46c-4.2,0-8.3,0-12.5,0
	c0-2.3,0-4.6,0-6.9C658.6,39.4,664.7,37.9,670.2,34.9z"/>
<path d="M161.5,36c11,0,22.1,0,33.1,0c0,2,0,4,0,6c-3.4,0.1-7.2-0.7-9.9,1.8c-0.9,5.4,2.2,10.3,4,15.1c4.9,11.4,9,23.1,14.4,34.2
	C208,80.7,213,68.3,218,55.9c1.4-3.8,3.8-7.8,2.5-11.9c-2.4-2.9-6.5-1.8-9.8-2c0-2,0-4,0-6c9.6,0,19.1,0,28.7,0c0,2,0,3.9,0,5.8
	c-3,0.2-6.2,0.9-8.2,3.3c-1.7,2.5-2.7,5.3-3.9,8c-7.8,17.8-15.7,35.6-23.5,53.4c-2.3,1.1-5.2,0.2-7.7,0.4
	c-7.7-18.5-15.8-36.8-23.7-55.2c-1.1-2.5-2.1-5-3.9-7.1c-1.8-2-4.6-2.6-7.1-2.8C161.5,39.9,161.5,38,161.5,36z"/>
</svg>
